<mxfile host="app.diagrams.net" modified="2021-05-06T19:16:00.689Z" agent="5.0 (X11)" etag="godY7pX2i9WM2frcWxB2" version="14.6.10" type="github">
  <diagram id="lrqQJ1RyRQUpBTxDNkRm" name="Page-1">
    <mxGraphModel dx="1422" dy="804" grid="1" gridSize="10" guides="1" tooltips="1" connect="1" arrows="1" fold="1" page="1" pageScale="1" pageWidth="850" pageHeight="1100" math="0" shadow="0">
      <root>
        <mxCell id="0" />
        <mxCell id="1" parent="0" />
        <mxCell id="_R5vSMbk7ibeEu0xb5uX-1" value="" style="outlineConnect=0;dashed=0;verticalLabelPosition=bottom;verticalAlign=top;align=center;html=1;shape=mxgraph.aws3.athena;fillColor=#F58534;gradientColor=none;" vertex="1" parent="1">
          <mxGeometry x="150" y="130" width="76.5" height="76.5" as="geometry" />
        </mxCell>
        <mxCell id="_R5vSMbk7ibeEu0xb5uX-2" value="" style="outlineConnect=0;dashed=0;verticalLabelPosition=bottom;verticalAlign=top;align=center;html=1;shape=mxgraph.aws3.elasticsearch_service;fillColor=#F58534;gradientColor=none;" vertex="1" parent="1">
          <mxGeometry x="391" y="120" width="67.5" height="81" as="geometry" />
        </mxCell>
        <mxCell id="_R5vSMbk7ibeEu0xb5uX-5" style="edgeStyle=orthogonalEdgeStyle;rounded=0;orthogonalLoop=1;jettySize=auto;html=1;entryX=0;entryY=0.5;entryDx=0;entryDy=0;entryPerimeter=0;" edge="1" parent="1" source="_R5vSMbk7ibeEu0xb5uX-3" target="_R5vSMbk7ibeEu0xb5uX-4">
          <mxGeometry relative="1" as="geometry" />
        </mxCell>
        <mxCell id="_R5vSMbk7ibeEu0xb5uX-3" value="" style="verticalLabelPosition=bottom;verticalAlign=top;html=1;shape=mxgraph.basic.rect;fillColor2=none;strokeWidth=1;size=20;indent=5;" vertex="1" parent="1">
          <mxGeometry x="106.5" y="270" width="120" height="60" as="geometry" />
        </mxCell>
        <mxCell id="_R5vSMbk7ibeEu0xb5uX-4" value="" style="shape=cylinder3;whiteSpace=wrap;html=1;boundedLbl=1;backgroundOutline=1;size=15;lid=0;" vertex="1" parent="1">
          <mxGeometry x="380" y="370" width="60" height="80" as="geometry" />
        </mxCell>
      </root>
    </mxGraphModel>
  </diagram>
</mxfile>
